<?xml version="1.0" standalone="no"?>
<!DOCTYPE svg PUBLIC "-//W3C//DTD SVG 20010904//EN"
 "http://www.w3.org/TR/2001/REC-SVG-20010904/DTD/svg10.dtd">
<svg version="1.0" xmlns="http://www.w3.org/2000/svg"
 width="166.000000pt" height="165.000000pt" viewBox="0 0 166.000000 165.000000"
 preserveAspectRatio="xMidYMid meet">

<g transform="translate(0.000000,165.000000) scale(0.100000,-0.100000)"
fill="#000000" stroke="none">
<path d="M609 1611 c-88 -28 -154 -69 -218 -135 -96 -101 -141 -210 -141 -344
0 -62 26 -209 36 -200 2 2 -2 37 -7 77 -33 238 117 466 346 526 252 65 508
-100 556 -359 19 -105 -14 -268 -85 -419 -40 -83 -136 -226 -230 -340 -44 -55
-88 -109 -97 -120 -9 -11 -20 -18 -25 -16 -20 8 -228 238 -292 321 -36 48 -68
85 -70 83 -11 -11 126 -218 224 -340 125 -155 128 -158 150 -151 24 7 228 230
305 333 198 263 270 552 190 762 -62 163 -193 283 -356 326 -80 20 -215 19
-286 -4z"/>
<path d="M683 1339 c-124 -23 -193 -117 -193 -264 0 -126 40 -196 135 -241 71
-34 154 -33 223 2 90 45 133 125 131 243 l-2 66 -7 -65 c-14 -137 -85 -210
-203 -210 -133 0 -207 83 -207 232 0 137 63 209 190 216 71 4 109 -8 160 -52
l25 -21 -24 27 c-48 55 -143 82 -228 67z"/>
<path d="M1287 550 c79 -36 160 -111 173 -159 40 -150 -180 -284 -527 -322
-99 -11 -292 -8 -398 6 -31 4 -25 0 25 -15 86 -27 267 -50 388 -50 272 0 521
66 633 167 51 46 69 81 69 134 0 100 -109 187 -306 244 -113 33 -134 31 -57
-5z"/>
<path d="M19 336 c-21 -44 9 -78 118 -134 79 -40 214 -92 240 -92 3 0 -6 9
-20 20 -15 12 -34 45 -47 84 -24 73 -41 92 -92 101 -29 6 -40 3 -57 -14 -24
-24 -26 -38 -10 -78 8 -22 8 -25 -2 -16 -6 6 -16 36 -20 65 -9 58 -35 88 -75
88 -16 0 -28 -8 -35 -24z"/>
</g>
</svg>
